<svg id="Layer_1" data-name="Layer 1" xmlns="http://www.w3.org/2000/svg" viewBox="0 0 525.48 736.97"><defs><style>.cls-1{fill:#8286c1;}.cls-2{fill:none;stroke:#231f20;stroke-linecap:round;stroke-linejoin:round;stroke-width:8px;}</style></defs><title>icon-lightbulb</title><path class="cls-1" d="M206.63,540.41c-.09,2.36-.13,4.43-.13,5.56v9a15.4,15.4,0,0,0,3.5,10.48l-3.5,7.42a18.75,18.75,0,0,0,1.63,8l-1.63,9.89a15.5,15.5,0,0,0,3.71,10.69l-1.28,7.75c0,6.88,2.69,11.26,7.71,14.07l-.82,5.29c0,10.49,6.8,14.39,19.39,15.8l-.61,5.13c0,14.73,15.66,19.26,42.92,19.26s45.63-4.53,45.63-19.26l-.63-5.4c12.28-1.58,19.42-5.6,19.42-15.53l-.88-5.79c5-2.82,7.76-7.1,7.76-13.57l-1.2-7.34c2.36-2.78,3.66-6.36,3.66-11.1l-1.72-10.22a16.84,16.84,0,0,0,1.72-7.69l-3.49-7.33a15.71,15.71,0,0,0,3.49-10.57v-9c0-1.64-.1-3.56-.29-5.56Z"/><path class="cls-2" d="M341.77,540.34c0-92.67,133.28-109.7,133.28-259.76,0-117.3-95-212.31-212.33-212.35S50.44,163.28,50.44,280.6c0,145.34,136.11,165.34,136.11,259.91Z"/><path class="cls-2" d="M198.7,540.57c-.71,2.79-1.07,13.11-1.07,16.1v8.19a13.52,13.52,0,0,0,3.38,9.56l-3.38,6.78a16.11,16.11,0,0,0,1.58,7.32l-1.58,9a13.65,13.65,0,0,0,3.58,9.75L200,614.38c0,6.28,2.59,10.27,7.43,12.84l-.79,4.84c0,9.57,6.55,13.13,18.68,14.41l-.58,4.69c0,13.44,15.08,17.58,41.35,17.58s44-4.14,44-17.58l-.61-4.93c11.83-1.45,18.71-5.12,18.71-14.17l-.85-5.29c4.83-2.58,7.48-6.48,7.48-12.39l-1.15-6.7a14.55,14.55,0,0,0,3.52-10.13l-1.66-9.33a14.71,14.71,0,0,0,1.66-7l-3.36-6.7a13.87,13.87,0,0,0,3.36-9.64v-8.19c0-4.74-.95-12-2.65-16.16"/><path class="cls-2" d="M200.24,570.47c.62.29,1.22.59,1.89.83s1.4.41,2.12.61,1.29.39,2,.53a30.36,30.36,0,0,0,3.14.43c.37,0,.73.13,1.13.16h.39c.79.05,2.38.16,4.81.27,12.52.58,81.87,2,118.3-2.12"/><path class="cls-2" d="M200.49,588.39c.63.28,1.23.59,1.9.82s1.4.41,2.12.61,1.29.4,2,.54a30.51,30.51,0,0,0,3.13.42c.38,0,.74.14,1.14.17h.39c.79,0,2.38.16,4.81.27,12.52.57,81.87,2,118.3-2.13"/><path class="cls-2" d="M200.49,606.3c.63.29,1.23.59,1.9.83s1.4.41,2.12.61,1.29.4,2,.53a30.55,30.55,0,0,0,3.13.43c.38,0,.74.13,1.14.17h.39c.79.05,2.38.15,4.81.26,12.52.58,81.87,2.05,118.3-2.12"/><path class="cls-2" d="M206,626.78h.39c.79.05,2.39.16,4.81.27,12.52.58,81.87,2,118.31-2.12"/><path class="cls-2" d="M221.49,645.42c.79.05,54.78,4.49,91.21.33"/></svg>