<svg id="Layer_1" data-name="Layer 1" xmlns="http://www.w3.org/2000/svg" viewBox="0 0 643.11 553.35"><defs><style>.cls-1{fill:#8286c1;}.cls-2{fill:none;stroke:#231f20;stroke-linecap:round;stroke-linejoin:round;stroke-width:8px;}.cls-3{fill:#6063ad;}</style></defs><title>icon-screens</title><path class="cls-1" d="M637,164.69V151.47c0-27.95-14.25-42.18-42.22-42.18H451.26c-23.17,0-36.91,9.77-40.95,29v26.41Z"/><path class="cls-1" d="M410.43,476.78h-.12v34.1c4,19.25,17.78,29,40.95,29H594.8c28,0,42.22-14.21,42.22-42.21V476.78Z"/><path class="cls-1" d="M361.57,408.37l-.27,38.3,20.69,36c0,4.88-4,3.76-8.86,3.76H232.36c-4.91,0-8.86,1.12-8.86-3.76l20.69-36.23-.27-37.74"/><path class="cls-1" d="M405.29,333.53h-376a15.72,15.72,0,0,1-5.44-1v42.39a33.3,33.3,0,0,0,33.3,33.29H405.29Z"/><path class="cls-1" d="M23.8,334.9c125.69-.1,250.69-.1,376.29,0"/><path class="cls-2" d="M350.26,410.35l-.28,38.3,20.7,36c0,4.88-4,3.75-8.86,3.75H221.05c-4.91,0-8.86,1.13-8.86-3.75l20.69-36.23-.27-37.75"/><path class="cls-2" d="M402.17,410.22H45.79a33.31,33.31,0,0,1-33.3-33.29V48a33.3,33.3,0,0,1,33.3-33.29H537.06A33.31,33.31,0,0,1,570.36,48v62.07"/><path class="cls-2" d="M12.49,336.89H401.57"/><path class="cls-2" d="M630.16,499.64c0,28-14.25,42.22-42.23,42.22H444.39c-28,0-42.22-14.22-42.22-42.22V153.45c0-27.95,14.25-42.18,42.22-42.18H587.93c28,0,42.23,14.23,42.23,42.18Z"/><line class="cls-2" x1="618.55" y1="479.59" x2="412.74" y2="479.59"/><line class="cls-2" x1="412.74" y1="165.08" x2="618.55" y2="165.08"/><rect class="cls-3" x="412.74" y="316.22" width="0.01" height="0.01" transform="translate(825.48 632.45) rotate(180)"/></svg>