<svg id="Layer_1" data-name="Layer 1" xmlns="http://www.w3.org/2000/svg" viewBox="0 0 361 337.45"><defs><style>.cls-1{fill:#acd25b;stroke:#000;stroke-miterlimit:10;stroke-width:14px;}.cls-2{fill:#fff;}.cls-3{fill:#1d1b1c;}</style></defs><title>icon-terminal</title><path class="cls-1" d="M310.23,24H49.46a36.11,36.11,0,0,0-36,36V268.74a36.11,36.11,0,0,0,36,36H310.23a36.11,36.11,0,0,0,36-36V60A36.11,36.11,0,0,0,310.23,24ZM20,81.9h0Z"/><path class="cls-2" d="M340.47,75.54V61.92c0-17.65-10.59-32.09-29.24-32.09L49.05,31c-18.65,0-29.58,12-29.58,29.64v15Z"/><circle class="cls-3" cx="45.9" cy="55.19" r="9"/><circle class="cls-3" cx="74.38" cy="55.19" r="9"/><circle class="cls-3" cx="102.86" cy="55.19" r="9"/><path d="M44.77,117.75l78-.16c3.22,0,3.22-5,0-5l-78,.16c-3.22,0-3.22,5,0,5Z"/><path d="M158.15,118l156-.34c3.22,0,3.22-5,0-5l-156,.34c-3.22,0-3.22,5,0,5Z"/><path d="M47.29,138h16c3.22,0,3.23-5,0-5h-16c-3.21,0-3.22,5,0,5Z"/><path d="M88.24,138h48c3.22,0,3.23-5,0-5h-48c-3.21,0-3.22,5,0,5Z"/><path d="M158.15,138h106c3.22,0,3.23-5,0-5h-106c-3.22,0-3.22,5,0,5Z"/><path d="M283.15,139.08h30c3.22,0,3.23-5,0-5h-30c-3.21,0-3.22,5,0,5Z"/><path d="M49.15,166.08h54c3.22,0,3.23-5,0-5h-54c-3.21,0-3.22,5,0,5Z"/><path d="M121.15,166.08h81c3.22,0,3.23-5,0-5h-81c-3.21,0-3.22,5,0,5Z"/><path d="M216.15,166.08h95c3.22,0,3.23-5,0-5h-95c-3.21,0-3.22,5,0,5Z"/><path d="M49.15,190.08h24c3.22,0,3.23-5,0-5h-24c-3.21,0-3.22,5,0,5Z"/><path d="M84.15,190.08h149c3.22,0,3.23-5,0-5h-149c-3.21,0-3.22,5,0,5Z"/><path d="M244.15,190.08h14c3.22,0,3.23-5,0-5h-14c-3.21,0-3.22,5,0,5Z"/><path d="M268.15,190.08h43c3.22,0,3.23-5,0-5h-43c-3.21,0-3.22,5,0,5Z"/><path d="M48.28,216h79.49c3.22,0,3.23-5,0-5H48.28c-3.22,0-3.23,5,0,5Z"/><path d="M136.77,216h85.5c3.22,0,3.22-5,0-5h-85.5c-3.21,0-3.22,5,0,5Z"/><path d="M229.77,216h85.15c3.22,0,3.23-5,0-5h-7.16c-3.21,0-3.22,5,0,5h7.16c3.22,0,3.23-5,0-5H229.77c-3.22,0-3.22,5,0,5Z"/><path d="M48.28,246h46.5c3.21,0,3.22-5,0-5H48.28c-3.22,0-3.23,5,0,5Z"/><path d="M108.27,246h84c3.22,0,3.22-5,0-5h-84c-3.21,0-3.22,5,0,5Z"/><path d="M202.77,246h111c3.22,0,3.23-5,0-5h-111c-3.22,0-3.22,5,0,5Z"/><path d="M48.28,276h31.5c3.21,0,3.22-5,0-5H48.28c-3.22,0-3.23,5,0,5Z"/><path d="M87.28,276h66c3.22,0,3.22-5,0-5h-66c-3.22,0-3.23,5,0,5Z"/><path d="M168.27,277.54h76.5c3.21,0,3.22-5,0-5h-76.5c-3.22,0-3.22,5,0,5Z"/><path d="M260.12,277.54h53.64c3.22,0,3.23-5,0-5h-5.64c-3.22,0-3.23,5,0,5h5.64c3.22,0,3.23-5,0-5H260.12c-3.22,0-3.22,5,0,5Z"/></svg>