<svg id="Layer_1" data-name="Layer 1" xmlns="http://www.w3.org/2000/svg" viewBox="0 0 383 432"><defs><style>.cls-1{fill:#ef5ea2;}</style></defs><title>icon-bolt</title><path d="M333.35,128.37a6.23,6.23,0,0,0-5.64-3.58H259.92L292.16,15.87a6.24,6.24,0,0,0-10.88-5.64L149.78,177.07a6.24,6.24,0,0,0,4.9,10.1H222L183.41,295.86a6.24,6.24,0,0,0,10.68,6.07L332.51,135A6.21,6.21,0,0,0,333.35,128.37Z"/><path class="cls-1" d="M206.92,266.91,236.69,183a6.24,6.24,0,0,0-5.87-8.33H167.54L271,43.45,245.6,129.26a6.24,6.24,0,0,0,6,8h62.86Z"/><path d="M159,283.07l-81.28-48c-5.13-3-9.79,4.95-4.67,8l81.29,48c5.13,3,9.78-5,4.66-8Z"/><path d="M155.42,317.36a925.19,925.19,0,0,0-98.66,45.47c-5.24,2.8-.58,10.78,4.66,8a904.19,904.19,0,0,1,96.46-44.55c5.47-2.14,3.09-11.08-2.46-8.9Z"/><path d="M190.68,342.35q4,37.75,6.58,75.65c.41,5.9,9.64,5.94,9.24,0q-2.59-37.89-6.58-75.65c-.62-5.85-9.86-5.92-9.24,0Z"/><path d="M216.56,325.88q77.07,13.64,153.32,31.46c5.79,1.36,8.25-7.55,2.46-8.9Q296.13,330.62,219,317c-5.81-1-8.3,7.87-2.45,8.9Z"/><path d="M239.26,298.94q41.63-6.58,83.71-9.24c5.9-.38,5.94-9.62,0-9.24q-43.29,2.76-86.17,9.57c-5.85.93-3.37,9.83,2.46,8.91Z"/><path d="M151.86,350.11a229.51,229.51,0,0,0-34.18,32.13c-3.87,4.47,2.64,11,6.53,6.53a218.12,218.12,0,0,1,32.31-30.68c4.65-3.57,0-11.6-4.66-8Z"/><path d="M115.52,293.35,12.08,267.51c-5.77-1.44-8.23,7.46-2.45,8.9l103.44,25.84c5.76,1.44,8.22-7.46,2.45-8.9Z"/><path d="M171.05,246.73l-40.63-38.79c-4.3-4.11-10.84,2.41-6.53,6.53l40.63,38.79c4.3,4.11,10.84-2.41,6.53-6.53Z"/><path d="M217.43,346.21l52.43,58.46c4,4.44,10.49-2.11,6.53-6.53L224,339.68c-4-4.44-10.49,2.11-6.53,6.53Z"/></svg>