<svg id="Layer_1" data-name="Layer 1" xmlns="http://www.w3.org/2000/svg" viewBox="0 0 443.03 632.65"><defs><style>.cls-1{fill:#8286c1;}.cls-2{fill:none;stroke:#231f20;stroke-linecap:round;stroke-linejoin:round;stroke-width:8px;}</style></defs><title>icon-bulb</title><path class="cls-1" d="M164.79,484.68c-.09,2.36-.14,4.43-.14,5.56v9a15.36,15.36,0,0,0,3.51,10.48l-3.51,7.42a18.6,18.6,0,0,0,1.64,8L164.65,535a15.46,15.46,0,0,0,3.72,10.69l-1.28,7.75c0,6.88,2.68,11.26,7.7,14.07l-.82,5.29c0,10.49,6.8,14.39,19.4,15.8l-.61,5.13c0,14.73,15.65,19.26,42.92,19.26s45.63-4.53,45.63-19.26l-.63-5.4c12.28-1.58,19.41-5.6,19.41-15.53l-.88-5.79c5-2.82,7.77-7.1,7.77-13.57l-1.2-7.34c2.35-2.78,3.65-6.36,3.65-11.1l-1.72-10.22a16.81,16.81,0,0,0,1.72-7.69L306,509.78a15.75,15.75,0,0,0,3.48-10.57v-9c0-1.64-.1-3.56-.29-5.56Z"/><path class="cls-2" d="M299.92,484.61c0-92.67,133.28-109.7,133.28-259.76,0-117.3-95-212.31-212.32-212.34S8.59,107.55,8.59,224.87c0,145.34,136.11,165.34,136.11,259.91Z"/><path class="cls-2" d="M156.85,484.84c-.7,2.79-1.07,13.11-1.07,16.1v8.19a13.56,13.56,0,0,0,3.38,9.56l-3.38,6.78a16.24,16.24,0,0,0,1.58,7.32l-1.58,9a13.69,13.69,0,0,0,3.58,9.75l-1.23,7.08c0,6.28,2.59,10.28,7.42,12.84l-.79,4.84c0,9.57,6.55,13.13,18.69,14.41l-.59,4.69c0,13.44,15.09,17.58,41.35,17.58s44-4.14,44-17.58l-.61-4.93c11.83-1.44,18.7-5.11,18.7-14.17l-.85-5.29c4.84-2.58,7.49-6.48,7.49-12.39l-1.16-6.7a14.49,14.49,0,0,0,3.52-10.13l-1.66-9.33a14.59,14.59,0,0,0,1.66-7l-3.35-6.7a13.87,13.87,0,0,0,3.35-9.64v-8.19c0-4.74-.95-12-2.65-16.16"/><path class="cls-2" d="M158.39,514.74c.62.29,1.22.59,1.89.83s1.41.41,2.12.61,1.3.39,2,.53a30.74,30.74,0,0,0,3.14.43c.37,0,.74.13,1.13.17h.4c.78.06,2.38.16,4.81.27,12.51.58,81.86,2,118.3-2.12"/><path class="cls-2" d="M158.65,532.66a18.89,18.89,0,0,0,1.89.82c.69.24,1.41.41,2.12.61s1.3.4,2,.54c1,.21,2.09.32,3.14.43.37,0,.74.13,1.13.16h.4c.78,0,2.38.16,4.81.27,12.51.58,81.86,2,118.3-2.13"/><path class="cls-2" d="M158.65,550.57c.62.29,1.22.59,1.89.83s1.41.41,2.12.61,1.3.4,2,.53a30.36,30.36,0,0,0,3.14.43c.37,0,.74.13,1.13.17h.4c.78.05,2.38.15,4.81.26,12.51.58,81.86,2.05,118.3-2.12"/><path class="cls-2" d="M164.14,571.05h.4c.78,0,2.38.16,4.81.27,12.51.58,81.87,2,118.3-2.12"/><path class="cls-2" d="M179.65,589.69c.78,0,54.77,4.49,91.2.33"/></svg>